<svg width="316" height="64" viewBox="0 0 316 64" fill="none" xmlns="http://www.w3.org/2000/svg">
<path d="M115.214 53.2879H106.956L88.2581 25.2678V53.2879H80V12.3984H88.2581L106.956 40.477V12.3984H115.214V53.2879ZM148.798 12.4569V19.0671H131.633V29.5381H144.787V36.0313H131.633V53.2879H123.375V12.4569H148.798ZM182.672 12.4569V19.0671H171.7V53.2879H163.443V19.0671H152.471V12.4569H182.672ZM186.574 36.9671C186.574 33.6914 187.223 30.786 188.52 28.2511C189.857 25.7163 191.647 23.7663 193.888 22.4014C196.169 21.0365 198.705 20.354 201.497 20.354C203.935 20.354 206.059 20.8415 207.868 21.8164C209.716 22.7914 211.19 24.0199 212.292 25.5018V20.8805H220.609V53.2879H212.292V48.5496C211.23 50.0707 209.755 51.3381 207.868 52.352C206.019 53.327 203.876 53.8143 201.438 53.8143C198.685 53.8143 196.169 53.1124 193.888 51.7084C191.647 50.3045 189.857 48.3351 188.52 45.8003C187.223 43.2265 186.574 40.2821 186.574 36.9671ZM212.292 37.0843C212.292 35.0953 211.898 33.3989 211.112 31.995C210.325 30.5521 209.263 29.4602 207.927 28.7191C206.589 27.9392 205.154 27.5492 203.621 27.5492C202.087 27.5492 200.671 27.9196 199.374 28.6606C198.076 29.4016 197.014 30.4935 196.188 31.9364C195.402 33.3404 195.009 35.0173 195.009 36.9671C195.009 38.9171 195.402 40.6331 196.188 42.115C197.014 43.5579 198.076 44.6694 199.374 45.4493C200.71 46.2292 202.126 46.6192 203.621 46.6192C205.154 46.6192 206.589 46.2488 207.927 45.5079C209.263 44.7279 210.325 43.6358 211.112 42.2319C211.898 40.789 212.292 39.073 212.292 37.0843ZM259.524 20.8805V53.2879H251.205V49.1932C250.145 50.5971 248.749 51.7084 247.018 52.5275C245.328 53.3075 243.479 53.6974 241.473 53.6974C238.917 53.6974 236.656 53.1709 234.691 52.118C232.724 51.0261 231.171 49.4466 230.03 47.3797C228.93 45.2738 228.379 42.778 228.379 39.8921V20.8805H236.636V38.7221C236.636 41.2961 237.286 43.2848 238.583 44.6888C239.881 46.0537 241.651 46.7363 243.892 46.7363C246.173 46.7363 247.963 46.0537 249.26 44.6888C250.558 43.2848 251.205 41.2961 251.205 38.7221V20.8805H259.524ZM275.93 10V53.2879H267.671V10H275.93ZM281.965 36.9671C281.965 33.6914 282.613 30.786 283.911 28.2511C285.248 25.7163 287.037 23.7663 289.279 22.4014C291.56 21.0365 294.096 20.354 296.888 20.354C299.325 20.354 301.448 20.8415 303.258 21.8164C305.106 22.7914 306.581 24.0199 307.681 25.5018V20.8805H316V53.2879H307.681V48.5496C306.621 50.0707 305.146 51.3381 303.258 52.352C301.409 53.327 299.266 53.8143 296.829 53.8143C294.076 53.8143 291.56 53.1124 289.279 51.7084C287.037 50.3045 285.248 48.3351 283.911 45.8003C282.613 43.2265 281.965 40.2821 281.965 36.9671ZM307.681 37.0843C307.681 35.0953 307.288 33.3989 306.502 31.995C305.716 30.5521 304.654 29.4602 303.317 28.7191C301.98 27.9392 300.546 27.5492 299.011 27.5492C297.477 27.5492 296.063 27.9196 294.765 28.6606C293.468 29.4016 292.405 30.4935 291.58 31.9364C290.792 33.3404 290.399 35.0173 290.399 36.9671C290.399 38.9171 290.792 40.6331 291.58 42.115C292.405 43.5579 293.468 44.6694 294.765 45.4493C296.1 46.2292 297.516 46.6192 299.011 46.6192C300.546 46.6192 301.98 46.2488 303.317 45.5079C304.654 44.7279 305.716 43.6358 306.502 42.2319C307.288 40.789 307.681 39.073 307.681 37.0843Z" fill="#6366F1"/>
<path d="M28.2736 59.334C43.889 59.334 56.5476 46.8417 56.5476 31.4319C56.5476 16.022 43.889 3.52979 28.2736 3.52979C12.6586 3.52979 0 16.022 0 31.4319C0 46.8417 12.6586 59.334 28.2736 59.334Z" fill="#C3BEFC"/>
<path d="M57.2633 3.52979L0 60.0403H57.2633V3.52979Z" fill="#6366F1"/>
<path d="M57.2638 27.3245H24.1113V60.0408H57.2638V27.3245Z" fill="#818CF8"/>
<path d="M44.4542 47.3995C52.7766 47.3995 59.5233 40.7416 59.5233 32.5284C59.5233 24.3152 52.7766 17.6571 44.4542 17.6571C36.1315 17.6571 29.3848 24.3152 29.3848 32.5284C29.3848 40.7416 36.1315 47.3995 44.4542 47.3995Z" fill="#4338CA"/>
</svg>
